<svg version="1.1" id="Layer_1" xmlns="http://www.w3.org/2000/svg" xmlns:xlink="http://www.w3.org/1999/xlink" x="0px" y="0px"
	 width="100%" viewBox="0 0 143 100" enable-background="new 0 0 143 100" xml:space="preserve">
<path fill="#170A0D" opacity="1.000000" stroke="none" 
	d="
M1.000000,71.000000 
	C1.000000,47.687721 1.000000,24.375446 1.000000,1.031585 
	C48.602577,1.031585 96.205177,1.031585 143.903900,1.031585 
	C143.903900,34.238934 143.903900,67.478241 143.903900,100.858772 
	C96.333626,100.858772 48.666874,100.858772 1.000000,100.858772 
	C1.000000,91.587074 1.000000,82.262192 1.282564,72.368317 
	C2.043163,71.199295 2.521196,70.599258 3.404174,70.005737 
	C8.172625,71.044533 12.536131,72.076820 17.094025,73.420303 
	C24.707125,76.667686 32.281498,77.038651 40.315285,75.028633 
	C41.072067,74.940643 41.509007,74.933411 41.958412,75.335449 
	C41.293350,78.619820 40.615826,81.494934 39.851509,84.738358 
	C41.558243,84.459297 42.932083,84.234665 44.648205,83.954071 
	C44.728172,85.343094 44.801090,86.609703 44.613224,88.006065 
	C43.856873,88.712173 43.361309,89.288536 42.463131,89.891945 
	C40.567532,89.987305 38.906311,89.670769 37.627804,90.229675 
	C36.288307,90.815262 35.316216,92.241264 34.183540,93.299950 
	C35.743061,94.437599 37.296425,96.533607 38.863194,96.543678 
	C44.992512,96.583061 51.189919,95.267899 57.236504,95.823112 
	C61.556831,96.219810 61.933231,93.793030 63.587234,91.044395 
	C60.889202,90.300713 58.638103,89.680214 55.948563,88.938873 
	C58.287163,82.917900 61.485512,78.876862 67.697533,77.435097 
	C70.321404,76.826111 74.784904,76.820457 73.051979,71.416832 
	C76.823853,68.958748 80.393326,66.765511 84.106476,64.928841 
	C87.232155,72.853775 90.214157,80.422150 93.168655,88.290756 
	C93.158775,89.725815 93.176407,90.860641 93.123886,92.234650 
	C93.458488,92.800514 93.863243,93.127190 94.651031,93.529800 
	C96.330391,93.572060 97.626709,93.538399 99.251434,93.616539 
	C100.041527,93.731140 100.503220,93.733940 101.422470,93.842590 
	C105.765099,93.947662 109.660156,94.101845 113.529266,93.852867 
	C114.709908,93.776894 115.819183,92.591949 116.833160,91.592026 
	C112.421967,89.047905 108.609726,86.322922 106.151176,81.986237 
	C105.838120,81.434036 104.713753,81.341789 103.982315,81.019531 
	C103.999390,81.002594 103.961800,81.030396 103.973427,80.616287 
	C101.917770,75.514839 99.850494,70.827492 97.826889,66.130287 
	C97.870552,66.120422 97.822960,66.196266 97.898842,65.833626 
	C99.618301,63.140396 101.261871,60.809807 103.437149,57.725266 
	C99.043747,57.077938 95.523651,56.559284 91.659821,56.102077 
	C89.247971,56.749962 87.189262,57.316902 87.114975,53.943901 
	C87.261719,53.818745 87.646881,53.797676 88.061279,53.834648 
	C89.779457,53.659527 91.204140,53.716434 92.368111,53.193275 
	C102.790306,48.508942 113.753540,47.382488 125.250992,48.032898 
	C125.496147,48.061508 125.979485,48.161831 126.287415,48.351479 
	C129.751953,49.772514 132.944901,51.257072 136.015671,46.928432 
	C125.939125,43.253963 116.383522,40.184582 105.706032,43.161552 
	C105.265877,43.408657 105.090324,43.508694 104.723099,43.477600 
	C104.531418,43.346470 104.104301,43.160675 103.798462,42.935158 
	C98.652603,43.144382 93.812576,43.579124 88.988876,44.010017 
	C89.005188,44.006161 88.981354,44.032467 88.950134,43.752968 
	C88.646667,42.991901 88.374420,42.510326 87.992355,41.847160 
	C87.882523,41.665569 87.876289,41.241180 87.908104,40.842941 
	C87.241867,38.991970 86.543816,37.539234 85.888290,36.081970 
	C85.930817,36.077438 85.885666,36.150085 85.917183,35.721684 
	C85.571342,31.794695 86.742043,27.602573 81.919136,26.075634 
	C81.994942,26.021704 81.855949,26.146357 81.889870,25.739006 
	C81.474487,21.853535 81.840363,17.885338 76.655746,17.088829 
	C75.866570,18.012167 75.379913,18.918877 74.595474,19.970253 
	C73.817757,21.058203 73.337807,22.001488 72.534798,23.125866 
	C67.786392,34.821529 63.361053,46.336102 58.612423,58.002434 
	C57.473377,60.391136 56.657623,62.628078 55.911510,64.910477 
	C55.981155,64.955940 55.859211,64.842598 55.549156,65.016632 
	C51.838600,66.474998 48.438099,67.759315 44.917435,68.763214 
	C42.217152,66.759148 40.890511,67.640289 40.485382,70.583954 
	C40.437962,70.632973 40.328743,70.551254 39.993813,70.441376 
	C38.774204,70.506508 37.889530,70.681526 36.693336,70.955231 
	C35.949566,71.063263 35.517311,71.072594 34.744942,70.863281 
	C30.623350,69.597496 26.824879,68.861107 23.052069,67.465790 
	C17.935764,65.573601 11.661097,66.827255 5.883952,66.701477 
	C3.561581,66.650917 2.395029,67.531334 2.749997,70.124252 
	C1.999451,70.498482 1.499725,70.749245 1.000000,71.000000 
z"/>
<path fill="#231106" opacity="1.000000" stroke="none" 
	d="
M1.000000,71.250000 
	C1.499725,70.749245 1.999451,70.498482 2.749588,70.123863 
	C3.000000,70.000000 2.999228,69.999222 2.999229,69.999222 
	C2.521196,70.599258 2.043163,71.199295 1.282564,71.899658 
	C1.000000,72.000000 1.000000,71.500000 1.000000,71.250000 
z"/>
<path fill="#F3BC4C" opacity="1.000000" stroke="none" 
	d="
M87.646881,53.797676 
	C87.646881,53.797676 87.261719,53.818745 86.760254,53.958099 
	C82.491791,56.070637 78.724785,58.043816 74.681412,60.085232 
	C73.952103,60.487553 73.499153,60.821640 73.053986,61.119919 
	C73.061760,61.084110 73.132751,61.102291 72.830017,61.150940 
	C72.036720,61.549984 71.546158,61.900383 71.067894,62.189964 
	C71.080193,62.129143 71.200989,62.157574 70.843460,62.135738 
	C69.000717,62.741768 67.515495,63.369633 66.033310,63.651596 
	C66.043518,62.844532 66.050705,62.383369 66.335846,61.756546 
	C67.655136,60.297272 68.696480,59.003654 69.753586,57.748047 
	C69.769356,57.786057 69.687569,57.776974 69.933304,57.694069 
	C70.456291,57.408188 70.733536,57.205212 71.006729,57.003254 
	C71.002670,57.004272 70.996399,57.008251 71.283401,56.941952 
	C72.038307,56.533028 72.506210,56.190407 72.961380,55.893158 
	C72.948647,55.938530 72.858475,55.911125 73.164749,55.863480 
	C73.973274,55.470795 74.475517,55.125755 74.957977,54.847492 
	C74.938187,54.914265 74.805443,54.872093 75.115814,54.820339 
	C75.902962,54.390236 76.379730,54.011887 77.104065,53.374542 
	C77.702042,51.773682 78.596664,50.297112 78.303940,49.114437 
	C77.303741,45.073536 75.886063,41.135971 74.929123,37.050980 
	C75.227821,36.057919 75.341629,34.418720 75.205338,34.397659 
	C71.416710,33.812130 72.197845,31.259806 72.543526,28.743229 
	C72.806038,26.832077 72.764252,24.879126 72.857864,22.944773 
	C73.337807,22.001488 73.817757,21.058203 74.617996,20.369362 
	C74.866791,23.918673 75.965271,25.567739 79.776146,23.799681 
	C80.677727,24.554472 81.266838,25.350416 81.855949,26.146358 
	C81.855949,26.146357 81.994942,26.021704 81.950188,26.444981 
	C83.232178,29.962200 84.558922,33.056145 85.885666,36.150085 
	C85.885666,36.150085 85.930817,36.077438 85.907715,36.439995 
	C86.548500,38.282097 87.212395,39.761639 87.876289,41.241180 
	C87.876289,41.241180 87.882523,41.665569 87.968880,42.138165 
	C88.363945,43.084660 88.672653,43.558563 88.981354,44.032467 
	C88.981354,44.032467 89.005188,44.006161 89.002922,44.376896 
	C90.061310,45.276142 91.168282,46.319340 92.173248,46.228920 
	C94.455788,46.023544 96.688179,45.260719 99.126007,44.998352 
	C99.884682,46.192013 100.458313,47.111809 101.017853,48.016205 
	C101.003761,48.000805 101.024712,48.034195 100.663078,47.999023 
	C99.236244,48.404919 98.171051,48.845985 96.841522,49.516777 
	C93.600418,51.096893 90.623650,52.447281 87.646881,53.797676 
z"/>
<path fill="#231106" opacity="1.000000" stroke="none" 
	d="
M74.957779,60.016998 
	C78.724785,58.043816 82.491791,56.070637 86.613518,54.083260 
	C87.189262,57.316902 89.247971,56.749962 91.659348,56.418091 
	C92.004463,57.095085 92.006294,57.517509 91.689651,58.103554 
	C89.587387,58.920246 87.803581,59.573326 85.769272,60.229774 
	C85.314415,60.484112 85.110054,60.735073 84.938499,60.973049 
	C84.971298,60.960060 84.942551,60.895626 84.580940,60.931610 
	C79.426811,63.885738 74.634285,66.803879 69.501068,69.807426 
	C63.679962,72.885216 58.199562,75.877602 52.402939,79.065796 
	C49.791870,79.905418 47.725330,80.443352 47.762444,83.728798 
	C47.779354,85.226036 46.163345,86.741714 45.184464,88.155884 
	C45.080936,88.062737 44.874012,87.876312 44.874012,87.876312 
	C44.801090,86.609703 44.728172,85.343094 44.648205,83.954071 
	C42.932083,84.234665 41.558243,84.459297 39.851509,84.738358 
	C40.615826,81.494934 41.293350,78.619820 42.259361,75.101517 
	C48.442410,72.322540 54.336975,70.186760 60.408569,68.050468 
	C60.585606,68.049957 60.888855,67.867188 61.184139,67.884171 
	C61.733231,67.615517 61.987041,67.329872 62.421715,67.042679 
	C62.602581,67.041115 62.910740,66.851662 63.193031,66.867104 
	C63.703403,66.599922 63.931484,66.317299 64.092606,66.026215 
	C64.025658,66.017761 64.009506,66.151764 64.283127,66.063599 
	C64.757126,65.655952 64.957504,65.336464 65.363113,64.993713 
	C65.568344,64.970444 65.958458,64.834587 66.300323,64.883896 
	C68.161797,64.007996 69.681389,63.082783 71.200989,62.157574 
	C71.200989,62.157574 71.080193,62.129143 71.379509,62.132988 
	C72.163467,61.791985 72.648109,61.447140 73.132751,61.102295 
	C73.132751,61.102291 73.061760,61.084110 73.342667,61.065979 
	C74.068298,60.704235 74.513039,60.360619 74.957779,60.016998 
z"/>
<path fill="#FCC74E" opacity="1.000000" stroke="none" 
	d="
M60.888855,67.867188 
	C60.888855,67.867188 60.585606,68.049957 60.013996,68.019737 
	C58.247993,66.940544 57.053604,65.891571 55.859211,64.842598 
	C55.859211,64.842598 55.981155,64.955940 56.255482,64.820610 
	C57.331776,62.407078 58.133743,60.128876 58.935715,57.850674 
	C63.361053,46.336102 67.786392,34.821529 72.534790,23.125866 
	C72.764252,24.879126 72.806038,26.832077 72.543526,28.743229 
	C72.197845,31.259806 71.416710,33.812130 75.205338,34.397659 
	C75.341629,34.418720 75.227821,36.057919 74.675171,36.839294 
	C73.446915,37.224159 72.403015,37.574009 72.160294,38.223339 
	C70.334534,43.107525 68.666550,48.050682 66.762169,53.204132 
	C66.412636,53.989586 66.250160,54.546307 66.063347,55.066639 
	C66.039001,55.030247 66.118767,55.066391 65.790337,55.187233 
	C62.971050,57.755131 63.939461,59.890484 66.057892,61.922207 
	C66.050705,62.383369 66.043518,62.844532 66.014526,63.860855 
	C65.992714,64.416016 65.958458,64.834587 65.958458,64.834587 
	C65.958458,64.834587 65.568344,64.970444 65.139862,65.148468 
	C64.477425,65.601585 64.243469,65.876678 64.009506,66.151764 
	C64.009506,66.151764 64.025658,66.017761 63.865227,66.131912 
	C63.440109,66.447922 63.175423,66.649788 62.910736,66.851662 
	C62.910740,66.851662 62.602581,67.041115 62.175030,67.142418 
	C61.461269,67.451546 61.175064,67.659363 60.888855,67.867188 
z"/>
<path fill="#EFB548" opacity="1.000000" stroke="none" 
	d="
M86.019783,60.226406 
	C87.803581,59.573326 89.587387,58.920246 92.053726,58.147900 
	C93.871796,58.028633 95.007332,58.028633 95.302399,58.028633 
	C95.647591,60.242744 95.935791,62.091293 95.896820,64.164467 
	C95.197731,68.191055 94.834137,71.993851 94.451637,75.794739 
	C94.042442,79.860939 93.615410,83.925331 93.196167,87.990517 
	C90.214157,80.422150 87.232155,72.853775 84.283981,64.661713 
	C84.526054,62.990547 84.734306,61.943089 84.942551,60.895626 
	C84.942551,60.895626 84.971298,60.960060 85.140839,60.872498 
	C85.575302,60.634899 85.811768,60.448723 86.019783,60.226406 
z"/>
<path fill="#231106" opacity="1.000000" stroke="none" 
	d="
M72.849586,71.681679 
	C74.784904,76.820457 70.321404,76.826111 67.697533,77.435097 
	C61.485512,78.876862 58.287163,82.917900 55.948563,88.938873 
	C58.638103,89.680214 60.889202,90.300713 63.587234,91.044395 
	C61.933231,93.793030 61.556831,96.219810 57.236504,95.823112 
	C51.189919,95.267899 44.992512,96.583061 38.863194,96.543678 
	C37.296425,96.533607 35.743061,94.437599 34.183540,93.299950 
	C35.316216,92.241264 36.288307,90.815262 37.627804,90.229675 
	C38.906311,89.670769 40.567532,89.987305 42.550423,89.984436 
	C43.040333,90.049881 43.215034,90.234764 42.990105,90.522217 
	C40.783104,91.471397 40.008816,93.086411 42.427349,93.355682 
	C46.652702,93.826111 50.997154,93.226761 55.291698,93.075714 
	C55.229404,92.368294 55.167110,91.660881 55.046848,90.710091 
	C54.897621,90.327095 54.806366,90.187485 54.718277,89.666168 
	C54.733620,88.522865 54.745789,87.761292 54.877098,86.644943 
	C55.473911,84.621925 55.951580,82.953674 56.274399,81.148262 
	C56.119545,81.011108 56.412220,81.302933 56.647667,81.053345 
	C61.906105,77.787331 66.929100,74.770912 72.177986,71.755089 
	C72.403885,71.755692 72.849586,71.681679 72.849586,71.681679 
z"/>
<path fill="#E1A543" opacity="1.000000" stroke="none" 
	d="
M93.168655,88.290756 
	C93.615410,83.925331 94.042442,79.860939 94.451637,75.794739 
	C94.834137,71.993851 95.197731,68.191055 96.137482,64.324577 
	C97.077866,64.905457 97.450417,65.550865 97.822960,66.196266 
	C97.822960,66.196266 97.870552,66.120422 97.869354,66.494965 
	C98.279999,68.516106 98.691849,70.162712 99.161453,72.110977 
	C99.578506,72.890221 99.937820,73.367798 100.303406,73.861938 
	C100.309669,73.878502 100.342110,73.860367 100.234573,74.271248 
	C99.844200,77.419090 99.468193,80.150391 99.301781,82.894417 
	C99.087616,86.425865 99.041519,89.967491 98.923027,93.504738 
	C97.626709,93.538399 96.330391,93.572060 94.620270,93.286591 
	C93.868996,92.643463 93.531517,92.319466 93.194031,91.995468 
	C93.176407,90.860641 93.158775,89.725815 93.168655,88.290756 
z"/>
<path fill="#ECC867" opacity="1.000000" stroke="none" 
	d="
M55.549156,65.016632 
	C57.053604,65.891571 58.247993,66.940544 59.836960,68.020248 
	C54.336975,70.186760 48.442410,72.322540 42.246899,74.692253 
	C41.509007,74.933411 41.072067,74.940643 39.865433,74.956963 
	C36.057518,74.916008 33.019299,74.865959 29.786629,74.670792 
	C29.457680,74.034798 29.178743,73.124146 29.209515,73.113556 
	C30.422911,72.696037 31.664455,72.360336 33.177914,71.895294 
	C33.997345,71.545052 34.541203,71.313492 35.085060,71.081924 
	C35.517311,71.072594 35.949566,71.063263 37.029633,71.010635 
	C38.561214,70.828651 39.444981,70.689957 40.328743,70.551254 
	C40.328743,70.551254 40.437962,70.632973 40.816849,70.475731 
	C42.476360,69.893539 43.756977,69.468590 45.037594,69.043640 
	C48.438099,67.759315 51.838600,66.474998 55.549156,65.016632 
z"/>
<path fill="#231106" opacity="1.000000" stroke="none" 
	d="
M34.744942,70.863289 
	C34.541203,71.313492 33.997345,71.545052 32.747818,71.826149 
	C27.497749,71.516273 22.955397,71.117950 18.404686,70.878311 
	C18.074633,70.860931 17.683842,71.996986 17.215851,72.724823 
	C17.110411,72.852890 16.899637,73.109100 16.899637,73.109100 
	C12.536131,72.076820 8.172625,71.044533 3.404173,70.005737 
	C2.999228,69.999222 3.000000,70.000000 3.000409,70.000381 
	C2.395029,67.531334 3.561581,66.650917 5.883952,66.701477 
	C11.661097,66.827255 17.935764,65.573601 23.052069,67.465790 
	C26.824879,68.861107 30.623350,69.597496 34.744942,70.863289 
z"/>
<path fill="#C5903F" opacity="1.000000" stroke="none" 
	d="
M99.251434,93.616539 
	C99.041519,89.967491 99.087616,86.425865 99.301781,82.894417 
	C99.468193,80.150391 99.844200,77.419090 100.470779,74.510971 
	C101.863617,76.570015 102.912712,78.800201 103.961800,81.030396 
	C103.961800,81.030396 103.999390,81.002594 104.001556,81.374420 
	C105.652924,84.499161 107.302139,87.252075 108.864693,90.361404 
	C106.173660,91.724136 103.569290,92.730438 100.964912,93.736740 
	C100.503220,93.733940 100.041527,93.731140 99.251434,93.616539 
z"/>
<path fill="#281004" opacity="1.000000" stroke="none" 
	d="
M105.970642,43.014488 
	C116.383522,40.184582 125.939125,43.253963 136.015671,46.928432 
	C132.944901,51.257072 129.751953,49.772514 126.650024,48.282810 
	C127.829720,47.975002 128.954712,47.925507 130.079712,47.876015 
	C130.151016,47.585789 130.222321,47.295563 130.293625,47.005337 
	C126.853271,46.034718 123.412910,45.064098 119.564255,44.023819 
	C115.439087,43.710075 111.722229,43.465992 107.664955,43.190960 
	C106.873238,43.111504 106.421944,43.062996 105.970642,43.014488 
z"/>
<path fill="#E3BA61" opacity="1.000000" stroke="none" 
	d="
M73.051979,71.416832 
	C72.849586,71.681679 72.403885,71.755692 71.959152,71.558403 
	C70.956871,70.814751 70.399315,70.268387 69.841766,69.722023 
	C74.634285,66.803879 79.426811,63.885738 84.580940,60.931610 
	C84.734306,61.943089 84.526054,62.990547 84.140305,64.305145 
	C80.393326,66.765511 76.823853,68.958748 73.051979,71.416832 
z"/>
<path fill="#281004" opacity="1.000000" stroke="none" 
	d="
M88.061279,53.834648 
	C90.623650,52.447281 93.600418,51.096893 97.193115,49.488480 
	C98.880928,48.831703 99.952820,48.432949 101.024712,48.034195 
	C101.024712,48.034195 101.003761,48.000805 101.436707,48.039398 
	C105.552193,47.553497 109.234734,47.029003 113.356323,46.591888 
	C116.174294,46.716476 118.553207,46.753689 121.288071,46.879559 
	C122.764618,47.313568 123.885223,47.658928 125.005829,48.004288 
	C113.753540,47.382488 102.790306,48.508942 92.368111,53.193275 
	C91.204140,53.716434 89.779457,53.659527 88.061279,53.834648 
z"/>
<path fill="#260F05" opacity="1.000000" stroke="none" 
	d="
M97.898842,65.833626 
	C97.450417,65.550865 97.077866,64.905457 96.464661,64.099945 
	C95.935791,62.091293 95.647591,60.242744 95.302399,58.028633 
	C95.007332,58.028633 93.871796,58.028633 92.372192,57.984283 
	C92.006294,57.517509 92.004463,57.095085 92.003098,56.356644 
	C95.523651,56.559284 99.043747,57.077938 103.437149,57.725266 
	C101.261871,60.809807 99.618301,63.140396 97.898842,65.833626 
z"/>
<path fill="#D7A54C" opacity="1.000000" stroke="none" 
	d="
M112.917267,46.504513 
	C109.234734,47.029003 105.552193,47.553497 101.450806,48.054794 
	C100.458313,47.111809 99.884682,46.192013 99.393318,44.753136 
	C100.922112,44.113499 102.368637,43.992943 104.012405,43.905487 
	C104.492165,43.930092 104.727203,43.820141 104.914780,43.608727 
	C105.090324,43.508694 105.265877,43.408657 105.706032,43.161552 
	C106.421944,43.062996 106.873238,43.111504 107.960426,43.348629 
	C110.036629,44.526337 111.476952,45.515427 112.917267,46.504513 
z"/>
<path fill="#260F05" opacity="1.000000" stroke="none" 
	d="
M108.951355,90.004982 
	C107.302139,87.252075 105.652924,84.499161 103.984482,81.391357 
	C104.713753,81.341789 105.838120,81.434036 106.151176,81.986237 
	C108.609726,86.322922 112.421967,89.047905 116.444931,91.616684 
	C113.773567,91.311134 111.362465,90.658058 108.951355,90.004982 
z"/>
<path fill="#281004" opacity="1.000000" stroke="none" 
	d="
M103.815163,43.872391 
	C102.368637,43.992943 100.922112,44.113499 99.208267,44.479275 
	C96.688179,45.260719 94.455788,46.023544 92.173248,46.228920 
	C91.168282,46.319340 90.061310,45.276142 88.986603,44.380753 
	C93.812576,43.579124 98.652603,43.144382 103.728836,43.114410 
	C103.965057,43.519184 103.815163,43.872391 103.815163,43.872391 
z"/>
<path fill="#231106" opacity="1.000000" stroke="none" 
	d="
M29.981081,74.815910 
	C33.019299,74.865959 36.057518,74.916008 39.545593,75.037727 
	C32.281498,77.038651 24.707125,76.667686 17.094025,73.420303 
	C16.899637,73.109100 17.110411,72.852890 17.605022,72.801262 
	C22.060114,73.438393 26.020597,74.127151 29.981081,74.815910 
z"/>
<path fill="#826643" opacity="1.000000" stroke="none" 
	d="
M108.864693,90.361404 
	C111.362465,90.658058 113.773567,91.311134 116.572906,91.939545 
	C115.819183,92.591949 114.709908,93.776894 113.529266,93.852867 
	C109.660156,94.101845 105.765099,93.947662 101.422470,93.842606 
	C103.569290,92.730438 106.173660,91.724136 108.864693,90.361404 
z"/>
<path fill="#260F05" opacity="1.000000" stroke="none" 
	d="
M103.973427,80.616287 
	C102.912712,78.800201 101.863617,76.570015 100.578316,74.100098 
	C100.342110,73.860367 100.309669,73.878502 100.267654,73.547997 
	C99.851662,72.748100 99.477684,72.278709 99.103706,71.809311 
	C98.691849,70.162712 98.279999,68.516106 97.825684,66.504829 
	C99.850494,70.827492 101.917770,75.514839 103.973427,80.616287 
z"/>
<path fill="#281004" opacity="1.000000" stroke="none" 
	d="
M81.889870,25.739006 
	C81.266838,25.350416 80.677727,24.554472 79.638840,23.455021 
	C78.445457,21.125076 77.701859,19.098639 76.958252,17.072201 
	C81.840363,17.885338 81.474487,21.853535 81.889870,25.739006 
z"/>
<path fill="#FCC74E" opacity="1.000000" stroke="none" 
	d="
M76.655746,17.088829 
	C77.701859,19.098639 78.445457,21.125076 79.326370,23.496174 
	C75.965271,25.567739 74.866791,23.918673 74.915771,20.224695 
	C75.379913,18.918877 75.866570,18.012167 76.655746,17.088829 
z"/>
<path fill="#281004" opacity="1.000000" stroke="none" 
	d="
M85.917183,35.721684 
	C84.558922,33.056145 83.232178,29.962200 81.874382,26.498911 
	C86.742043,27.602573 85.571342,31.794695 85.917183,35.721684 
z"/>
<path fill="#9A7744" opacity="1.000000" stroke="none" 
	d="
M125.250992,48.032898 
	C123.885223,47.658928 122.764618,47.313568 121.245697,46.594093 
	C120.555779,45.511147 120.264168,44.802315 119.972557,44.093479 
	C123.412910,45.064098 126.853271,46.034718 130.293625,47.005337 
	C130.222321,47.295563 130.151016,47.585789 130.079712,47.876015 
	C128.954712,47.925507 127.829720,47.975002 126.342102,48.093163 
	C125.979485,48.161831 125.496147,48.061508 125.250992,48.032898 
z"/>
<path fill="#231106" opacity="1.000000" stroke="none" 
	d="
M44.917435,68.763214 
	C43.756977,69.468590 42.476360,69.893539 40.864273,70.426712 
	C40.890511,67.640289 42.217152,66.759148 44.917435,68.763214 
z"/>
<path fill="#ECC867" opacity="1.000000" stroke="none" 
	d="
M58.612419,58.002434 
	C58.133743,60.128876 57.331776,62.407078 56.185837,64.775146 
	C56.657623,62.628078 57.473377,60.391136 58.612419,58.002434 
z"/>
<path fill="#281004" opacity="1.000000" stroke="none" 
	d="
M87.908104,40.842941 
	C87.212395,39.761639 86.548500,38.282097 85.865189,36.444527 
	C86.543816,37.539234 87.241867,38.991970 87.908104,40.842941 
z"/>
<path fill="#231106" opacity="1.000000" stroke="none" 
	d="
M42.953041,89.957382 
	C43.361309,89.288536 43.856873,88.712173 44.613224,88.006065 
	C44.874012,87.876312 45.080936,88.062737 45.083832,88.439621 
	C44.462830,89.289261 43.838928,89.762009 43.215034,90.234756 
	C43.215034,90.234764 43.040333,90.049881 42.953041,89.957382 
z"/>
<path fill="#826643" opacity="1.000000" stroke="none" 
	d="
M93.123878,92.234657 
	C93.531517,92.319466 93.868996,92.643463 94.237236,93.210663 
	C93.863243,93.127190 93.458488,92.800514 93.123878,92.234657 
z"/>
<path fill="#231106" opacity="1.000000" stroke="none" 
	d="
M39.993813,70.441376 
	C39.444981,70.689957 38.561214,70.828651 37.341148,70.911942 
	C37.889530,70.681526 38.774204,70.506508 39.993813,70.441376 
z"/>
<path fill="#281004" opacity="1.000000" stroke="none" 
	d="
M88.950134,43.752968 
	C88.672653,43.558563 88.363945,43.084660 88.078705,42.319756 
	C88.374420,42.510326 88.646667,42.991901 88.950134,43.752968 
z"/>
<path fill="#B88843" opacity="1.000000" stroke="none" 
	d="
M104.012405,43.905487 
	C103.815163,43.872391 103.965057,43.519184 104.034683,43.339928 
	C104.104301,43.160675 104.531418,43.346470 104.723099,43.477600 
	C104.727203,43.820141 104.492165,43.930092 104.012405,43.905487 
z"/>
<path fill="#261208" opacity="1.000000" stroke="none" 
	d="
M66.949234,52.975403 
	C68.666550,48.050682 70.334534,43.107525 72.160294,38.223339 
	C72.403015,37.574009 73.446915,37.224159 74.373718,36.947296 
	C75.886063,41.135971 77.303741,45.073536 78.303940,49.114437 
	C78.596664,50.297112 77.702042,51.773682 76.805161,53.460644 
	C75.774277,54.161194 75.289856,54.516644 74.805443,54.872093 
	C74.805443,54.872093 74.938187,54.914265 74.641937,54.885475 
	C73.849953,55.208164 73.354218,55.559647 72.858475,55.911125 
	C72.858475,55.911125 72.948647,55.938530 72.667053,55.941132 
	C71.922440,56.298569 71.459419,56.653408 70.996399,57.008247 
	C70.996399,57.008251 71.002670,57.004272 70.731400,57.024002 
	C70.202606,57.288147 69.945084,57.532558 69.687569,57.776974 
	C69.687569,57.776974 69.769356,57.786057 69.404610,57.824539 
	C67.877350,58.224941 66.714844,58.586857 65.306389,59.025341 
	C65.621536,57.489529 65.870155,56.277962 66.118767,55.066391 
	C66.118767,55.066391 66.039001,55.030247 66.333084,54.906540 
	C66.734520,54.180355 66.841881,53.577877 66.949234,52.975403 
z"/>
<path fill="#E3BA5E" opacity="1.000000" stroke="none" 
	d="
M65.790337,55.187233 
	C65.870155,56.277962 65.621536,57.489529 65.306389,59.025341 
	C66.714844,58.586857 67.877350,58.224941 69.388840,57.786530 
	C68.696480,59.003654 67.655136,60.297272 66.335846,61.756546 
	C63.939461,59.890484 62.971050,57.755131 65.790337,55.187233 
z"/>
<path fill="#E3BA5E" opacity="1.000000" stroke="none" 
	d="
M66.300323,64.883896 
	C65.958458,64.834587 65.992714,64.416016 66.011497,64.206757 
	C67.515495,63.369633 69.000717,62.741768 70.843460,62.135738 
	C69.681389,63.082783 68.161797,64.007996 66.300323,64.883896 
z"/>
<path fill="#D7A54C" opacity="1.000000" stroke="none" 
	d="
M100.663078,47.999023 
	C99.952820,48.432949 98.880928,48.831703 97.457443,49.258759 
	C98.171051,48.845985 99.236244,48.404919 100.663078,47.999023 
z"/>
<path fill="#E3BA5E" opacity="1.000000" stroke="none" 
	d="
M72.830017,61.150940 
	C72.648109,61.447140 72.163467,61.791985 71.367210,62.193806 
	C71.546158,61.900383 72.036720,61.549984 72.830017,61.150940 
z"/>
<path fill="#E3BA5E" opacity="1.000000" stroke="none" 
	d="
M74.681412,60.085232 
	C74.513039,60.360619 74.068298,60.704235 73.334885,61.101791 
	C73.499153,60.821640 73.952103,60.487553 74.681412,60.085232 
z"/>
<path fill="#E3BA5E" opacity="1.000000" stroke="none" 
	d="
M71.283401,56.941948 
	C71.459419,56.653408 71.922440,56.298569 72.679787,55.895760 
	C72.506210,56.190407 72.038307,56.533028 71.283401,56.941948 
z"/>
<path fill="#E3BA5E" opacity="1.000000" stroke="none" 
	d="
M73.164749,55.863480 
	C73.354218,55.559647 73.849953,55.208164 74.661728,54.818703 
	C74.475517,55.125755 73.973274,55.470795 73.164749,55.863480 
z"/>
<path fill="#E3BA5E" opacity="1.000000" stroke="none" 
	d="
M75.115814,54.820339 
	C75.289856,54.516644 75.774277,54.161194 76.557602,53.719635 
	C76.379730,54.011887 75.902962,54.390236 75.115814,54.820339 
z"/>
<path fill="#E3BA5E" opacity="1.000000" stroke="none" 
	d="
M69.933304,57.694069 
	C69.945084,57.532558 70.202606,57.288147 70.735451,57.022984 
	C70.733536,57.205212 70.456291,57.408188 69.933304,57.694069 
z"/>
<path fill="#EECB60" opacity="1.000000" stroke="none" 
	d="
M42.990105,90.522217 
	C43.838928,89.762009 44.462830,89.289261 45.187359,88.532776 
	C46.163345,86.741714 47.779354,85.226036 47.762444,83.728798 
	C47.725330,80.443352 49.791870,79.905418 52.786316,79.138367 
	C54.461353,79.777740 55.436787,80.540337 56.412216,81.302933 
	C56.412220,81.302933 56.119545,81.011108 55.946907,81.265533 
	C55.435501,83.346542 55.096733,85.173126 54.757965,86.999710 
	C54.745789,87.761292 54.733620,88.522865 54.678940,89.801514 
	C54.656834,90.625626 54.812962,90.837257 55.104820,90.953468 
	C55.167110,91.660881 55.229404,92.368294 55.291698,93.075714 
	C50.997154,93.226761 46.652702,93.826111 42.427349,93.355682 
	C40.008816,93.086411 40.783104,91.471397 42.990105,90.522217 
z"/>
<path fill="#E1C16B" opacity="1.000000" stroke="none" 
	d="
M56.647667,81.053345 
	C55.436787,80.540337 54.461353,79.777740 53.102543,78.942566 
	C58.199562,75.877602 63.679962,72.885216 69.501068,69.807426 
	C70.399315,70.268387 70.956871,70.814751 71.733253,71.557800 
	C66.929100,74.770912 61.906105,77.787331 56.647667,81.053345 
z"/>
<path fill="#ECC867" opacity="1.000000" stroke="none" 
	d="
M61.184139,67.884171 
	C61.175064,67.659363 61.461269,67.451546 61.994164,67.143982 
	C61.987041,67.329872 61.733231,67.615517 61.184139,67.884171 
z"/>
<path fill="#ECC867" opacity="1.000000" stroke="none" 
	d="
M63.193031,66.867104 
	C63.175423,66.649788 63.440109,66.447922 63.932178,66.140366 
	C63.931484,66.317299 63.703403,66.599922 63.193031,66.867104 
z"/>
<path fill="#ECC867" opacity="1.000000" stroke="none" 
	d="
M64.283127,66.063599 
	C64.243469,65.876678 64.477425,65.601585 64.934631,65.171738 
	C64.957504,65.336464 64.757126,65.655952 64.283127,66.063599 
z"/>
<path fill="#E3BA61" opacity="1.000000" stroke="none" 
	d="
M85.769272,60.229774 
	C85.811768,60.448723 85.575302,60.634899 85.108047,60.885487 
	C85.110054,60.735073 85.314415,60.484112 85.769272,60.229774 
z"/>
<path fill="#E3BA5E" opacity="1.000000" stroke="none" 
	d="
M66.762169,53.204132 
	C66.841881,53.577877 66.734520,54.180355 66.357422,54.942932 
	C66.250160,54.546307 66.412636,53.989586 66.762169,53.204132 
z"/>
<path fill="#E1C16B" opacity="1.000000" stroke="none" 
	d="
M54.877106,86.644943 
	C55.096733,85.173126 55.435501,83.346542 56.101761,81.402687 
	C55.951580,82.953674 55.473911,84.621925 54.877106,86.644943 
z"/>
<path fill="#E1C16B" opacity="1.000000" stroke="none" 
	d="
M55.046848,90.710091 
	C54.812962,90.837257 54.656834,90.625626 54.675770,90.183228 
	C54.806366,90.187485 54.897621,90.327095 55.046848,90.710091 
z"/>
<path fill="#C5903F" opacity="1.000000" stroke="none" 
	d="
M99.161453,72.110977 
	C99.477684,72.278709 99.851662,72.748100 100.261391,73.531433 
	C99.937820,73.367798 99.578506,72.890221 99.161453,72.110977 
z"/>
<path fill="#E4C877" opacity="1.000000" stroke="none" 
	d="
M29.786629,74.670792 
	C26.020597,74.127151 22.060114,73.438393 17.710461,72.673203 
	C17.683842,71.996986 18.074633,70.860931 18.404686,70.878311 
	C22.955397,71.117950 27.497749,71.516273 32.472244,71.944839 
	C31.664455,72.360336 30.422911,72.696037 29.209515,73.113556 
	C29.178743,73.124146 29.457680,74.034798 29.786629,74.670792 
z"/>
<path fill="#B88843" opacity="1.000000" stroke="none" 
	d="
M119.564255,44.023819 
	C120.264168,44.802315 120.555779,45.511147 120.889755,46.505440 
	C118.553207,46.753689 116.174294,46.716476 113.356323,46.591888 
	C111.476952,45.515427 110.036629,44.526337 108.300842,43.379578 
	C111.722229,43.465992 115.439087,43.710075 119.564255,44.023819 
z"/>
</svg>